Coordinates
version=1
nRows=19
nColumns=24
inDegrees=yes

Units are S.I. units (second, meters, Newtons, ...)
Angles are in degrees.

endheader
time	pelvis_tilt	pelvis_list	pelvis_rotation	pelvis_tx	pelvis_ty	pelvis_tz	hip_flexion_r	hip_adduction_r	hip_rotation_r	knee_angle_r	ankle_angle_r	subtalar_angle_r	mtp_angle_r	hip_flexion_l	hip_adduction_l	hip_rotation_l	knee_angle_l	ankle_angle_l	subtalar_angle_l	mtp_angle_l	lumbar_extension	lumbar_bending	lumbar_rotation
      2.78000000	     50.85002800	      1.63403420	     -3.76919976	      0.75630556	      0.96521839	     -0.27507923	     16.05372951	    -14.12652492	      8.75425380	    -62.25376250	      6.67747138	     16.25913277	    -32.72272539	     12.77416603	     -6.22488824	     -3.85800138	    -24.19592700	     -1.84239314	     11.64069709	    -25.16425824	      0.00000000	      0.00000000	      0.00000000
      2.79000000	     50.85465419	      1.62977277	     -3.79818810	      0.75618880	      0.96522322	     -0.27493013	     16.05849019	    -14.10915938	      8.81095093	    -62.20399878	      6.68283574	     16.20727651	    -32.81945621	     13.06487676	     -5.77459853	     -3.37380882	    -23.19945692	     -1.63475479	     11.36976629	    -24.04122049	      0.00000000	      0.00000000	      0.00000000
      2.80000000	     50.84667919	      1.63345157	     -3.82895109	      0.75606994	      0.96522570	     -0.27477924	     16.07445698	    -14.09471877	      8.87274075	    -62.15086916	      6.68592050	     16.14531985	    -32.88122597	     13.36968897	     -5.33125315	     -2.83091704	    -22.36015101	     -1.48185114	     11.23169317	    -23.03041288	      0.00000000	      0.00000000	      0.00000000
      2.81000000	     50.83304951	      1.64411715	     -3.86113658	      0.75594354	      0.96524358	     -0.27463359	     16.09598050	    -14.08135913	      8.93390106	    -62.09863445	      6.68720908	     16.07454564	    -32.90552020	     13.67252022	     -4.89917661	     -2.24408793	    -21.66377633	     -1.38112330	     11.23421661	    -22.18795734	      0.00000000	      0.00000000	      0.00000000
      2.82000000	     50.81848472	      1.66002332	     -3.89325601	      0.75580666	      0.96526804	     -0.27448605	     16.11836791	    -14.06869013	      8.99265465	    -62.05007936	      6.68714533	     15.99830108	    -32.89517018	     13.95924892	     -4.48143772	     -1.62965721	    -21.09477191	     -1.32337897	     11.37193037	    -21.55186773	      0.00000000	      0.00000000	      0.00000000
      2.83000000	     50.80622837	      1.67846570	     -3.92337975	      0.75566125	      0.96527604	     -0.27431771	     16.13847202	    -14.05827827	      9.05169263	    -62.00626755	      6.68590829	     15.92168364	    -32.85779127	     14.21833005	     -4.07940941	     -1.00561764	    -20.63894021	     -1.29460141	     11.62982980	    -21.13844719	      0.00000000	      0.00000000	      0.00000000
      2.84000000	     50.79898627	      1.69712715	     -3.95077855	      0.75551184	      0.96527390	     -0.27412954	     16.15475314	    -14.05240647	      9.11557300	    -61.96720843	      6.68344168	     15.85028353	    -32.80431309	     14.44095129	     -3.69306322	     -0.39180587	    -20.28631810	     -1.27893075	     11.98738742	    -20.94263800	      0.00000000	      0.00000000	      0.00000000
      2.85000000	     50.79877581	      1.71522472	     -3.97711006	      0.75536445	      0.96528849	     -0.27394574	     16.16633531	    -14.05218219	      9.18728813	    -61.93287105	      6.67963884	     15.78852004	    -32.74694783	     14.62071486	     -3.32141301	      0.19031945	    -20.03281960	     -1.26182648	     12.42229461	    -20.94152657	      0.00000000	      0.00000000	      0.00000000
      2.86000000	     50.80657015	      1.73321720	     -4.00582435	      0.75522373	      0.96532880	     -0.27378538	     16.17194015	    -14.05686603	      9.26664960	    -61.90371739	      6.67453761	     15.73833682	    -32.69705365	     14.75345848	     -2.96342593	      0.71872253	    -19.87972451	     -1.23250208	     12.91325533	    -21.09987472	      0.00000000	      0.00000000	      0.00000000
      2.87000000	     50.82286598	      1.75159591	     -4.04008883	      0.75509076	      0.96538691	     -0.27365018	     16.16978556	    -14.06475269	      9.35102839	    -61.88044815	      6.66844940	     15.69881003	    -32.66332537	     14.83749232	     -2.61943631	      1.17259714	    -19.83142449	     -1.18520581	     13.44165464	    -21.37650605	      0.00000000	      0.00000000	      0.00000000
      2.88000000	     50.84834460	      1.76983288	     -4.08096663	      0.75496906	      0.96545702	     -0.27353560	     16.15821086	    -14.07422234	      9.43698591	    -61.86342417	      6.66201145	     15.66670668	    -32.65060717	     14.87358573	     -2.29180372	      1.53435342	    -19.89288987	     -1.11942049	     13.99231215	    -21.73052551	      0.00000000	      0.00000000	      0.00000000
      2.89000000	     50.88346470	      1.78626588	     -4.12712421	      0.75486723	      0.96553741	     -0.27343995	     16.13613262	    -14.08398711	      9.52139854	    -61.85238316	      6.65615313	     15.63757402	    -32.65943134	     14.86420908	     -1.98422897	      1.79112774	    -20.06813943	     -1.03915975	     14.55354143	    -22.12654025	      0.00000000	      0.00000000	      0.00000000
      2.90000000	     50.92753274	      1.79891072	     -4.17597782	      0.75479114	      0.96562503	     -0.27336316	     16.10308381	    -14.09283497	      9.60180343	    -61.84652199	      6.65193663	     15.60691664	    -32.68623150	     14.81254512	     -1.70050597	      1.93545481	    -20.35989255	     -0.95143042	     15.11656332	    -22.53825420	      0.00000000	      0.00000000	      0.00000000
      2.91000000	     50.97853260	      1.80644519	     -4.22531556	      0.75474067	      0.96571328	     -0.27330703	     16.05921634	    -14.09958375	      9.67638497	    -61.84463360	      6.65023098	     15.57124847	    -32.72410215	     14.72197311	     -1.44367737	      1.96509866	    -20.76984819	     -0.86407779	     15.67435100	    -22.95011672	      0.00000000	      0.00000000	      0.00000000
      2.92000000	     51.03394569	      1.80859163	     -4.27424488	      0.75471605	      0.96579434	     -0.27327851	     16.00549734	    -14.10362574	      9.74404744	    -61.84521525	      6.65127314	     15.52891356	    -32.76395612	     14.59606344	     -1.21613226	      1.88228040	    -21.29904655	     -0.78352341	     16.22016158	    -23.35708113	      0.00000000	      0.00000000	      0.00000000
      2.93000000	     51.09160140	      1.80551237	     -4.32296637	      0.75472001	      0.96586951	     -0.27327938	     15.94380487	    -14.10578856	      9.80465622	    -61.84675459	      6.65430527	     15.48057307	    -32.79593350	     14.43866644	     -1.02031282	      1.69265404	    -21.94812045	     -0.71308052	     16.74619231	    -23.76286153	      0.00000000	      0.00000000	      0.00000000
      2.94000000	     51.14983824	      1.79722267	     -4.37213557	      0.75475406	      0.96595281	     -0.27329879	     15.87651924	    -14.10820361	      9.85881714	    -61.84822998	      6.65751883	     15.42931332	    -32.81091072	     14.25395450	     -0.85917977	      1.40441756	    -22.71742541	     -0.65241602	     17.24282605	    -24.17728535	      0.00000000	      0.00000000	      0.00000000
      2.95000000	     51.20723064	      1.78375685	     -4.42259035	      0.75481872	      0.96605361	     -0.27332695	     15.80589242	    -14.11259959	      9.90687396	    -61.84946783	      6.65845878	     15.38037147	    -32.80193203	     14.04646367	     -0.73588351	      1.02781207	    -23.60712161	     -0.59834762	     17.69873958	    -24.61339191	      0.00000000	      0.00000000	      0.00000000
      2.96000000	     51.26235763	      1.76501468	     -4.47511170	      0.75491294	      0.96616739	     -0.27336526	     15.73387566	    -14.11845334	      9.94804025	    -61.85104038	      6.65490938	     15.34040641	    -32.76536192	     13.82103271	     -0.65276822	      0.57506655	    -24.61742030	     -0.54678963	     18.10188165	    -25.08485279	      0.00000000	      0.00000000	      0.00000000
